<svg width="21" height="20" viewBox="0 0 21 20" fill="none" xmlns="http://www.w3.org/2000/svg">
<g filter="url(#filter0_i_43_84)">
<path fill-rule="evenodd" clip-rule="evenodd" d="M15.3136 12.8982H14.3864L14.0578 12.5816C14.7913 11.7304 15.3273 10.7278 15.6276 9.64545C15.9279 8.56313 15.985 7.42789 15.7948 6.32096C15.2432 3.06167 12.5202 0.458926 9.23383 0.0603082C8.07845 -0.0856965 6.90495 0.0342475 5.80312 0.410962C4.70129 0.787676 3.70034 1.41118 2.87685 2.23375C2.05336 3.05633 1.42917 4.05617 1.05204 5.15679C0.67491 6.2574 0.554834 7.4296 0.701 8.5837C1.10006 11.8664 3.70568 14.5864 6.96858 15.1374C8.07674 15.3274 9.21324 15.2704 10.2968 14.9704C11.3803 14.6705 12.384 14.135 13.2362 13.4023L13.5531 13.7306V14.6568L18.5413 19.6395C19.0225 20.1202 19.8089 20.1202 20.2901 19.6395C20.7713 19.1588 20.7713 18.3733 20.2901 17.8926L15.3136 12.8982ZM8.27139 12.8982C5.34887 12.8982 2.98972 10.5416 2.98972 7.62233C2.98972 4.70304 5.34887 2.3465 8.27139 2.3465C11.1939 2.3465 13.5531 4.70304 13.5531 7.62233C13.5531 10.5416 11.1939 12.8982 8.27139 12.8982Z" fill="black" fill-opacity="0.55"/>
</g>
<defs>
<filter id="filter0_i_43_84" x="0.640625" y="0" width="20.0104" height="24" filterUnits="userSpaceOnUse" color-interpolation-filters="sRGB">
<feFlood flood-opacity="0" result="BackgroundImageFix"/>
<feBlend mode="normal" in="SourceGraphic" in2="BackgroundImageFix" result="shape"/>
<feColorMatrix in="SourceAlpha" type="matrix" values="0 0 0 0 0 0 0 0 0 0 0 0 0 0 0 0 0 0 127 0" result="hardAlpha"/>
<feOffset dy="4"/>
<feGaussianBlur stdDeviation="2"/>
<feComposite in2="hardAlpha" operator="arithmetic" k2="-1" k3="1"/>
<feColorMatrix type="matrix" values="0 0 0 0 0 0 0 0 0 0 0 0 0 0 0 0 0 0 0.25 0"/>
<feBlend mode="normal" in2="shape" result="effect1_innerShadow_43_84"/>
</filter>
</defs>
</svg>
